<svg width="187" height="114" viewBox="0 0 187 114" fill="none" xmlns="http://www.w3.org/2000/svg">
<path d="M53.4558 112.66H86.1088L70.5304 96.0897C68.3814 93.8039 64.819 93.6169 63.202 96.3054C61.5123 99.1147 59.7745 103.097 57.3673 108.918L64.6803 90.2108C62.0257 95.3609 60.3216 99.2443 56.6871 108.918C57.5573 102.871 59.3353 97.7572 64 86.6393C58.4585 93.3861 56.2511 97.4853 55.3265 105.857C54.865 104.101 54.6095 103.087 54.3061 99.9046C53.9537 97.9417 53.2222 96.8655 51.1015 95.4592C50.4177 95.0058 49.761 94.5092 49.1809 93.9291L37.6395 82.3876C50.4882 96.629 51.5592 99.7041 52.1796 104.156C53.1269 106.631 53.4585 109.062 53.4558 112.66Z" fill="black"/>
<path d="M43.5918 112.66H53.4558C53.4585 109.062 53.1269 106.631 52.1796 104.156C51.6667 102.816 50.9731 101.463 50.0544 99.9046C47.7488 97.1013 45.6087 94.4835 43.5918 92.0378C51.4975 104.615 46.3129 107.388 43.5918 112.66Z" fill="black"/>
<path d="M14.5102 65.0407C12.1161 68.2084 11.5684 69.6897 11.449 72.0135C12.5945 65.3998 25.792 72.3455 34.7483 83.5034L42.363 90.5509C31.9609 77.9946 24.7578 70.1645 14.5102 65.0407Z" fill="black"/>
<path d="M100.565 81.7074L120.463 112.66H132.707L100.565 81.7074Z" fill="black"/>
<path d="M133.558 112.66H144.782C154.036 105.971 159.024 102.102 166.381 94.2924C170.803 62.8298 153.456 50.4149 132.707 27.6257C129.805 19.989 114.446 18.4593 90.1905 20.5609C101.91 19.8141 101.345 22.2 86.1088 32.0475C81.3703 35.7559 80.9419 40.0026 81.3469 48.7142C76.2449 57.2176 76.2449 57.2176 83.5971 64.7006C100.025 78.4133 131.508 108.303 133.558 112.66Z" fill="#4D3027"/>
<path d="M63.202 96.3054C64.819 93.6169 68.3814 93.8039 70.5304 96.0897L86.1088 112.66H120.463L100.565 81.7074C93.1483 74.3507 88.3332 70.6899 77.7755 65.5509C72.1452 62.0887 69.1433 62.6549 64 67.0815C56.3206 72.1541 52.8398 75.5705 47.6735 82.3876C46.4329 87.1227 43.8422 86.4266 37.6395 82.3876L49.1809 93.9291C49.761 94.5092 50.4177 95.0058 51.1015 95.4592C53.2222 96.8655 53.9537 97.9417 54.3061 99.9046C54.6095 103.087 54.865 104.101 55.3265 105.857C56.2511 97.4853 58.4585 93.3861 64 86.6393C59.3353 97.7572 57.5573 102.871 56.6871 108.918C60.3216 99.2443 62.0257 95.3609 64.6803 90.2108L57.3673 108.918C59.7745 103.097 61.5123 99.1147 63.202 96.3054Z" fill="#4D3027"/>
<path d="M77.7755 22.2932C78.609 22.0279 79.4599 21.7824 80.3265 21.5548C93.0391 18.2156 109.134 18.7234 123.184 17.1745C120.555 8.56755 117.56 5.73269 111.497 5.43305C110.179 5.452 108.902 5.4797 107.66 5.51689C105.504 5.5814 103.453 5.67445 101.469 5.79985C101.173 5.81994 100.872 5.83983 100.565 5.85955C89.996 7.46837 103.116 12.1495 77.7755 22.2932Z" fill="#4D3027"/>
<path d="M136.789 21.1632C137.151 19.494 136.337 18.0143 134.578 15.2108C131.03 16.1239 127.19 16.7328 123.184 17.1745C109.134 18.7234 93.0391 18.2156 80.3265 21.5548C83.7586 21.1662 87.0491 20.8331 90.1905 20.5609C114.446 18.4593 129.805 19.989 132.707 27.6257C153.456 50.4149 170.803 62.8298 166.381 94.2924C159.024 102.102 154.036 105.971 144.782 112.66H158.048L167.912 100.585L164.85 112.66H186.449C186.106 97.2774 185.239 89.0965 181.007 76.2652C179.497 69.3927 178.416 66.0831 175.054 63.5101C167.559 56.4162 163.633 52.2882 156.857 44.8026C149.99 36.06 145.109 30.6384 136.789 21.1632Z" fill="black"/>
<path d="M134.578 15.2108C130.497 9.59853 132.027 5.51689 126.755 5.51689C121.005 5.40591 116.01 5.36817 111.497 5.43305C117.56 5.73269 120.555 8.56755 123.184 17.1745C127.19 16.7328 131.03 16.1239 134.578 15.2108Z" fill="black"/>
<path d="M126.755 5.51689L124.204 0.925058C119.643 0.802613 115.589 0.760923 111.789 0.824295C115.19 4.08059 112.159 5.07293 101.469 5.79985C103.453 5.67445 105.504 5.5814 107.66 5.51689C109.064 5.41122 110.336 5.3757 111.497 5.43305C116.01 5.36817 121.005 5.40591 126.755 5.51689Z" fill="black"/>
<path d="M5.07143 93.0169C1.7551 94.8026 3.79592 101.435 1.07483 112.66H40.3605C46.0753 103.308 41.6832 92.1431 34.7483 83.5034C25.792 72.3455 12.5945 65.3998 11.449 72.0135C11.5684 69.6897 12.1161 68.2084 14.5102 65.0407C24.7578 70.1645 31.9609 77.9946 42.363 90.5509C42.7677 91.0394 43.1771 91.535 43.5918 92.0378C45.6087 94.4835 47.7488 97.1013 50.0544 99.9046C50.9731 101.463 51.6667 102.816 52.1796 104.156C51.5592 99.7041 50.4882 96.629 37.6395 82.3876C43.8422 86.4266 46.4329 87.1227 47.6735 82.3876C52.8398 75.5705 56.3206 72.1541 64 67.0815C69.1433 62.6549 72.1452 62.0887 77.7755 65.5509C88.3332 70.6899 93.1483 74.3507 100.565 81.7074L132.707 112.66H133.558C131.508 108.303 100.025 78.4133 83.5971 64.7006C76.2449 57.2176 76.2449 57.2176 81.3469 48.7142C80.9419 40.0026 81.3703 35.7559 86.1088 32.0475C101.345 22.2 101.91 19.8141 90.1905 20.5609C87.0491 20.8331 83.7586 21.1662 80.3265 21.5548C79.4599 21.7824 78.609 22.0279 77.7755 22.2932C71.5938 24.2606 66.3713 27.3144 62.8095 32.2176C57.1805 35.9863 53.2055 38.4642 47.6735 41.5197C45.9334 42.4808 44.0393 43.499 41.8912 44.6325C30.7505 50.5681 24.8155 54.4789 14.5102 61.9795C14.1499 62.4434 13.8078 62.8956 13.4814 63.34C10.3143 67.6528 8.62735 71.2458 6.17687 77.9659C6.9467 83.6615 6.53635 85.8016 4.64626 88.17L5.07143 93.0169Z" fill="#7C4E41"/>
<path d="M47.6735 41.5197C53.2055 38.4642 57.1805 35.9863 62.8095 32.2176C66.3713 27.3144 71.5938 24.2606 77.7755 22.2932C103.116 12.1495 89.996 7.46837 100.565 5.85955C96.3703 6.14863 92.4606 6.58793 88.4898 7.21464C85.092 7.7509 81.6495 8.42439 77.9456 9.25839C62.8095 18.7822 47.6436 36.2802 47.6735 41.5197Z" fill="#7C4E41"/>
<path d="M88.4898 7.21464C92.4606 6.58793 96.3703 6.14863 100.565 5.85955C100.864 5.83889 101.166 5.81899 101.469 5.79985C112.159 5.07293 115.19 4.08059 111.789 0.824295C100.693 1.3336 96.6833 2.07617 96.483 4.83662C94.0997 6.07525 92.1061 6.49369 88.4898 7.21464Z" fill="#67566E"/>
<path d="M49.6679 27.7616C46.3795 30.1557 44.8986 34.3209 43.5948 38.1738C42.4398 41.587 40.4373 43.5142 41.8912 44.6325C44.0393 43.499 45.9334 42.4808 47.6735 41.5197C47.6436 36.2802 62.8095 18.7822 77.9456 9.25839C81.6495 8.42439 85.092 7.7509 88.4898 7.21464C92.1061 6.49369 94.0997 6.07525 96.483 4.83662C96.6833 2.07617 100.693 1.3336 111.789 0.824295C100.462 1.01323 91.4011 2.13596 77.9456 4.83662C75.8383 3.783 63.74 17.5162 49.6679 27.7616Z" fill="white"/>
<path d="M167.912 100.585L158.048 112.66H164.85L167.912 100.585Z" fill="#4D3027"/>
<path d="M40.3605 112.66H43.5918C46.3129 107.388 51.4975 104.615 43.5918 92.0378C43.1771 91.535 42.7677 91.0394 42.363 90.5509L34.7483 83.5034C41.6832 92.1431 46.0753 103.308 40.3605 112.66Z" fill="#4D3027"/>
<path d="M126.755 5.51689L124.204 0.925058C119.643 0.802613 115.589 0.760923 111.789 0.824295M126.755 5.51689C132.027 5.51689 130.497 9.59853 134.578 15.2108M126.755 5.51689C121.005 5.40591 116.01 5.36817 111.497 5.43305M134.578 15.2108C136.337 18.0143 137.151 19.494 136.789 21.1632C145.109 30.6384 149.99 36.06 156.857 44.8026C163.633 52.2882 167.559 56.4162 175.054 63.5101C178.416 66.0831 179.497 69.3927 181.007 76.2652C185.239 89.0965 186.106 97.2774 186.449 112.66H164.85M134.578 15.2108C131.03 16.1239 127.19 16.7328 123.184 17.1745M5.4966 97.8638L4.64626 88.17M4.64626 88.17C6.53635 85.8016 6.9467 83.6615 6.17687 77.9659C8.62735 71.2458 10.3143 67.6528 13.4814 63.34M4.64626 88.17L5.07143 93.0169C1.7551 94.8026 3.79592 101.435 1.07483 112.66H40.3605M41.8912 44.6325C30.7505 50.5681 24.8155 54.4789 14.5102 61.9795C14.1499 62.4434 13.8078 62.8956 13.4814 63.34M41.8912 44.6325C40.4373 43.5142 42.4398 41.587 43.5948 38.1738C44.8986 34.3209 46.3795 30.1557 49.6679 27.7616C63.74 17.5162 75.8383 3.783 77.9456 4.83662C91.4011 2.13596 100.462 1.01323 111.789 0.824295M41.8912 44.6325C44.0393 43.499 45.9334 42.4808 47.6735 41.5197M47.6735 41.5197C53.2055 38.4642 57.1805 35.9863 62.8095 32.2176C66.3713 27.3144 71.5938 24.2606 77.7755 22.2932M47.6735 41.5197C47.6436 36.2802 62.8095 18.7822 77.9456 9.25839C81.6495 8.42439 85.092 7.7509 88.4898 7.21464M73.8639 57.8978C74.4546 57.4563 78.2192 60.2116 83.5971 64.7006M133.558 112.66H132.707M133.558 112.66H144.782M133.558 112.66C131.508 108.303 100.025 78.4133 83.5971 64.7006M23.0136 68.6121C17.9666 63.99 15.9028 62.8816 13.4814 63.34M40.3605 112.66H43.5918M40.3605 112.66C46.0753 103.308 41.6832 92.1431 34.7483 83.5034M53.4558 112.66H43.5918M53.4558 112.66H86.1088M53.4558 112.66C53.4585 109.062 53.1269 106.631 52.1796 104.156M43.5918 112.66C46.3129 107.388 51.4975 104.615 43.5918 92.0378M43.5918 92.0378C45.6087 94.4835 47.7488 97.1013 50.0544 99.9046C50.9731 101.463 51.6667 102.816 52.1796 104.156M43.5918 92.0378C43.1771 91.535 42.7677 91.0394 42.363 90.5509M86.1088 112.66L70.5304 96.0897C68.3814 93.8039 64.819 93.6169 63.202 96.3054C61.5123 99.1147 59.7745 103.097 57.3673 108.918L64.6803 90.2108C62.0257 95.3609 60.3216 99.2443 56.6871 108.918C57.5573 102.871 59.3353 97.7572 64 86.6393C58.4585 93.3861 56.2511 97.4853 55.3265 105.857C54.865 104.101 54.6095 103.087 54.3061 99.9046C53.9537 97.9417 53.2222 96.8655 51.1015 95.4592C50.4177 95.0058 49.761 94.5092 49.1809 93.9291L37.6395 82.3876M86.1088 112.66H120.463M37.6395 82.3876C50.4882 96.629 51.5592 99.7041 52.1796 104.156M37.6395 82.3876C43.8422 86.4266 46.4329 87.1227 47.6735 82.3876C52.8398 75.5705 56.3206 72.1541 64 67.0815C69.1433 62.6549 72.1452 62.0887 77.7755 65.5509C88.3332 70.6899 93.1483 74.3507 100.565 81.7074M34.7483 83.5034C25.792 72.3455 12.5945 65.3998 11.449 72.0135C11.5684 69.6897 12.1161 68.2084 14.5102 65.0407C24.7578 70.1645 31.9609 77.9946 42.363 90.5509M34.7483 83.5034L42.363 90.5509M120.463 112.66L100.565 81.7074M120.463 112.66H132.707M100.565 81.7074L132.707 112.66M144.782 112.66C154.036 105.971 159.024 102.102 166.381 94.2924C170.803 62.8298 153.456 50.4149 132.707 27.6257C129.805 19.989 114.446 18.4593 90.1905 20.5609M144.782 112.66H158.048M80.3265 21.5548C83.7586 21.1662 87.0491 20.8331 90.1905 20.5609M80.3265 21.5548C79.4599 21.7824 78.609 22.0279 77.7755 22.2932M80.3265 21.5548C93.0391 18.2156 109.134 18.7234 123.184 17.1745M90.1905 20.5609C101.91 19.8141 101.345 22.2 86.1088 32.0475C81.3703 35.7559 80.9419 40.0026 81.3469 48.7142C76.2449 57.2176 76.2449 57.2176 83.5971 64.7006M158.048 112.66L167.912 100.585L164.85 112.66M158.048 112.66H164.85M77.7755 22.2932C103.116 12.1495 89.996 7.46837 100.565 5.85955M100.565 5.85955C96.3703 6.14863 92.4606 6.58793 88.4898 7.21464M100.565 5.85955C100.872 5.83983 101.173 5.81994 101.469 5.79985M100.565 5.85955C100.864 5.83889 101.166 5.81899 101.469 5.79985M123.184 17.1745C120.555 8.56755 117.56 5.73269 111.497 5.43305M107.66 5.51689C108.902 5.4797 110.179 5.452 111.497 5.43305M107.66 5.51689C105.504 5.5814 103.453 5.67445 101.469 5.79985M107.66 5.51689C109.064 5.41122 110.336 5.3757 111.497 5.43305M111.789 0.824295C100.693 1.3336 96.6833 2.07617 96.483 4.83662C94.0997 6.07525 92.1061 6.49369 88.4898 7.21464M111.789 0.824295C115.19 4.08059 112.159 5.07293 101.469 5.79985" stroke="black"/>
</svg>
