<svg width="125" height="125" viewBox="0 0 125 125" fill="none" xmlns="http://www.w3.org/2000/svg">
<path d="M70.9621 57.4988C86.626 60.5681 91.0835 69.1757 94.0233 92.4988H95.5607C95.7648 76.7234 95.5607 45.9988 111.694 48.5C115.85 47.8201 118.582 62.8154 121.431 72.5C123.461 65.31 122.793 59.7548 123.481 54.5C114.417 37.1428 89.019 34.3227 70 49C69.9754 49.4769 71.0081 56.9738 70.9621 57.4988Z" fill="url(#paint0_linear_34_1366)"/>
<path d="M3.82839 55.9988C22.7653 56.6633 32.5297 53.5728 49.4383 45.9988C62.452 40.6147 68.024 39.8789 69.4247 46.5C86.8738 30.9657 112.807 32.2148 123.481 52C123.7 49.8041 122.696 47.5236 122.722 44.9988C105.809 -39.0011 -19.2335 15.9988 3.82839 55.9988Z" fill="#383838"/>
<path d="M69.4247 46.5C68.024 39.8789 62.452 40.6147 49.4383 45.9988C32.5297 53.5728 22.7653 56.6633 3.82839 55.9988C-19.2335 15.9988 105.809 -39.0011 122.722 44.9988C122.696 47.5236 123.7 49.8041 123.481 52M69.4247 46.5C86.8738 30.9657 112.807 32.2148 123.481 52M69.4247 46.5L70 49M70 49C69.9754 49.4769 71.0081 56.9737 70.9621 57.4988C86.626 60.5681 91.0835 69.1757 94.0233 92.4988H95.5607C95.7648 76.7234 95.5607 45.9988 111.694 48.5C115.85 47.8201 118.582 62.8154 121.431 72.5C123.461 65.31 122.793 59.7548 123.481 54.5M70 49C89.019 34.3227 114.417 37.1428 123.481 54.5M123.481 54.5C123.567 53.8381 123.413 52.6729 123.481 52" stroke="black" stroke-width="0.5"/>
<path d="M93 57.5C103.762 30.5 102.924 11.8702 86.848 3.49878C110.669 8 132.193 40 121.431 72.5C118.356 56.5 114.066 45.9812 110.156 48.5475C104.5 48.5475 98.3833 51.3636 96.5 68.5C95.1156 66.6224 93.1299 61.216 93 57.5Z" fill="black" fill-opacity="0.3"/>
<defs>
<linearGradient id="paint0_linear_34_1366" x1="62.256" y1="1" x2="62.256" y2="92.4988" gradientUnits="userSpaceOnUse">
<stop stop-color="#383838"/>
<stop offset="1" stop-color="#383838" stop-opacity="0.3"/>
</linearGradient>
</defs>
</svg>
